<svg version="1.0" width="195" height="65"><path fill="#808183" d="M53.424 45.707v-20.07c0-3.513 1.053-6.326 3.159-8.436 2.105-2.111 4.91-3.166 8.413-3.166 3.487 0 6.155 1.025 8.004 3.076 1.851 2.051 2.774 4.999 2.774 8.845v19.751h-9.181V25.956c0-1.857-.677-2.786-2.029-2.786-1.307 0-1.959.929-1.959 2.786v19.751h-9.181zM95.06 23.68v22.027h-9.183V23.68H78.83v-8.903h23.232v8.903zM122.227 26.833v6.864h-5.975c-.813 0-1.389.121-1.727.365s-.507.654-.507 1.235c0 .654.173 1.084.52 1.291.345.206 1.053.308 2.118.308h6.174v8.811h-7.21c-3.403 0-6.005-.811-7.805-2.431-1.801-1.621-2.701-3.96-2.701-7.02V24.134c0-2.968.852-5.27 2.554-6.905 1.703-1.634 4.098-2.452 7.185-2.452h7.978v8.903h-5.857c-1.567 0-2.351.513-2.351 1.542 0 .604.187 1.024.56 1.259.374.234 1.038.351 1.994.351h5.05zM151.42 14.777l-8.037 15.051 8.31 15.879h-9.668l-3.804-7.499-3.217 7.499h-9.508l8.491-15.63-8.039-15.3h9.578l3.6 7.031 2.899-7.031zM39.176 14.777v14.624l2.05-1.044 5.427 10.65-7.477 3.81v2.89h9.182v-30.93z"/><path d="M18.626 21.461l1.852 29.957 25.066-12.77-4.679-9.182-10.768 5.486-1.8-29.983L2.5 18.113l4.679 9.181z"/><path fill="#E2001A" d="M43.767 1.294c-3.063 0-5.554 2.383-5.554 5.312 0 2.93 2.49 5.313 5.554 5.313 3.063 0 5.554-2.383 5.554-5.313 0-2.929-2.491-5.312-5.554-5.312zM157.474 9.383c.264-.048.647-.084.999-.084.557 0 .921.108 1.166.329.197.18.318.455.318.772 0 .526-.337.879-.755 1.022v.018c.305.108.491.395.586.813.133.563.228.951.311 1.106h-.537c-.065-.119-.155-.46-.264-.963-.118-.556-.342-.766-.813-.784h-.49v1.747h-.521V9.383zm.521 1.836h.532c.556 0 .91-.306.91-.765 0-.521-.378-.749-.928-.749-.252 0-.424.019-.515.042v1.472z"/><circle fill="none" stroke="#E2001A" stroke-miterlimit="10" cx="158.632" cy="11.329" r="3.172"/><path fill="#E2001A" d="M185.151 55.246h-.038l-1.779 4.536h3.635l-1.818-4.536zm-2.658 6.574l-.724 1.803h-4.065l4.398-10.473h5.941l4.457 10.473h-3.987l-.763-1.803h-5.257zm-6.353 1.803h-3.909V53.15h3.909v10.473zm-17.63 0h-3.91V53.15h6.607l4.201 8.042h.158l-.235-8.042h3.909v10.473h-6.665l-4.144-8.043h-.157l.236 8.043zm-12.802-8.377h-.04l-1.777 4.536h3.636l-1.819-4.536zm-2.659 6.574l-.723 1.803h-4.065l4.398-10.473h5.941l4.456 10.473h-3.988l-.762-1.803h-5.257zm-20.543 1.803h-3.91V53.15h6.197l2.795 6.576h.138l2.657-6.576h6.353v10.473h-3.91l.392-8.043h-.136l-3.714 8.043h-3.383l-3.752-8.043h-.117l.39 8.043zm-6.9 0h-3.908V53.15h3.908v10.473zm-12.099-2.431h6.119v2.431H99.599V53.15h3.908v8.042zm-14.971.14h2.951c.638 0 1.099-.069 1.378-.209.281-.141.421-.424.421-.852 0-.214-.03-.386-.088-.517-.059-.131-.156-.23-.294-.3-.137-.069-.316-.115-.537-.141-.222-.022-.489-.035-.802-.035h-3.029v2.054zm0-3.993h2.814c.339 0 .619-.015.841-.042.221-.027.395-.077.518-.147.124-.069.212-.169.264-.3.053-.129.078-.302.078-.517 0-.158-.013-.293-.038-.404-.027-.112-.083-.202-.167-.271-.085-.071-.208-.122-.371-.155-.163-.031-.381-.053-.655-.063h-3.283v1.899zm-3.911-4.189h7.702c.729 0 1.381.033 1.955.099.573.065 1.058.193 1.455.384s.701.463.909.816c.209.354.313.815.313 1.382 0 .335-.028.639-.088.909-.059.271-.173.508-.342.711-.169.205-.403.375-.703.51-.301.136-.691.23-1.173.285v.112c.547.028.987.104 1.319.224.332.121.589.284.772.489.182.203.302.446.36.727.06.278.089.58.089.907 0 .641-.105 1.156-.313 1.542-.21.386-.516.679-.92.879-.403.201-.902.333-1.495.399-.593.063-1.279.098-2.062.098h-7.78V53.15zm-2.97 0v6.981c0 .697-.117 1.277-.352 1.738-.234.462-.603.825-1.104 1.096-.502.271-1.141.462-1.916.572-.775.112-1.697.168-2.766.168-1.473 0-2.636-.067-3.489-.202-.854-.136-1.505-.35-1.954-.644-.45-.293-.736-.663-.86-1.108-.125-.447-.186-.986-.186-1.62V53.15h3.908v6.926c0 .299.059.529.177.69.117.164.284.282.498.356.215.074.482.119.802.132.319.015.687.021 1.104.021.416 0 .765-.012 1.046-.034.279-.023.508-.079.684-.169.176-.087.304-.221.382-.397.077-.176.117-.418.117-.725v-6.8h3.909zm-20.562 4.104c1.082.057 1.974.135 2.678.231.704.098 1.258.251 1.661.461.404.208.685.501.841.873.157.373.234.855.234 1.451 0 .289-.007.574-.02.858-.014.284-.079.552-.195.803-.117.253-.3.486-.547.706-.248.219-.606.406-1.075.564-.47.158-1.072.282-1.808.37-.737.089-1.639.133-2.708.133-.938 0-1.788-.021-2.551-.063-.763-.043-1.414-.174-1.954-.399-.542-.222-.962-.569-1.261-1.04-.301-.47-.449-1.132-.449-1.988h3.752c0 .269.039.483.118.643.077.158.211.278.4.361.188.085.438.14.752.162.313.023.71.034 1.192.034.456 0 .841-.009 1.153-.027.313-.018.563-.061.752-.126s.326-.161.412-.286c.083-.125.125-.301.125-.524 0-.223-.019-.397-.058-.522s-.131-.218-.274-.278c-.143-.062-.352-.102-.625-.119-.272-.021-.639-.038-1.095-.057l-.859-.043c-.9-.045-1.704-.097-2.415-.153-.709-.055-1.309-.181-1.797-.377-.489-.194-.864-.494-1.124-.9-.262-.403-.392-.984-.392-1.737s.144-1.342.431-1.766c.286-.424.696-.744 1.231-.957.534-.215 1.183-.347 1.944-.398.763-.051 1.625-.077 2.59-.077.794 0 1.554.017 2.277.05s1.355.142 1.896.327c.541.188.971.479 1.29.873.319.397.479.956.479 1.684v.432h-3.753c0-.27-.042-.477-.126-.621-.085-.145-.216-.251-.391-.32-.177-.07-.401-.11-.675-.119-.273-.01-.606-.015-.997-.015-.534 0-.951.021-1.251.057-.3.037-.528.093-.684.167-.157.075-.255.167-.293.279-.04.111-.059.242-.059.391 0 .215.035.379.107.496.07.117.176.203.313.259s.302.096.497.119c.196.022.425.04.685.048l1.626.08z"/></svg>